<svg width="17" height="20" viewBox="0 0 17 20" fill="none" xmlns="http://www.w3.org/2000/svg">
<path d="M0.956789 18.329V1.67002C0.956603 1.50675 1.0014 1.34644 1.08646 1.20594C1.17153 1.06544 1.29373 0.949939 1.44022 0.871569C1.58671 0.793199 1.75208 0.754855 1.91897 0.760566C2.08585 0.766277 2.24808 0.815833 2.38861 0.904026L15.7065 9.234C15.8383 9.31614 15.9468 9.42943 16.0219 9.5634C16.0971 9.69737 16.1365 9.8477 16.1365 10.0005C16.1365 10.1533 16.0971 10.3036 16.0219 10.4376C15.9468 10.5716 15.8383 10.6849 15.7065 10.767L2.38861 19.096C2.248 19.1842 2.08568 19.2338 1.91871 19.2394C1.75174 19.2451 1.58629 19.2067 1.43977 19.1282C1.29324 19.0497 1.17106 18.9341 1.08607 18.7934C1.00108 18.6528 0.956419 18.4923 0.956789 18.329Z" fill="#FD695A"/>
<path d="M1.31575 18.3301V1.64007C1.31456 1.61976 1.31456 1.59939 1.31575 1.57907C1.31575 1.65407 1.31575 1.59107 1.31575 1.57007C1.32803 1.52807 1.33928 1.48607 1.35155 1.44607C1.32803 1.51607 1.34439 1.45807 1.35155 1.43907C1.35871 1.42007 1.39553 1.38207 1.41291 1.35407C1.4303 1.32607 1.43644 1.32407 1.44564 1.31207C1.40269 1.36807 1.43132 1.32807 1.44359 1.31207C1.47632 1.28407 1.50803 1.25307 1.54382 1.22307C1.48655 1.27207 1.5295 1.23207 1.54894 1.22107L1.60825 1.18507L1.65939 1.16007C1.72894 1.12207 1.60621 1.17407 1.67575 1.15307C1.71973 1.14107 1.76473 1.12707 1.80973 1.11707C1.76166 1.11007 1.89155 1.09607 1.80973 1.11707C1.8329 1.11824 1.85611 1.11824 1.87928 1.11707C1.89835 1.11591 1.91748 1.11591 1.93655 1.11707C1.93655 1.11707 2.02962 1.13307 1.97541 1.11707L2.01632 1.12907C2.04471 1.13633 2.0727 1.14501 2.10019 1.15507C2.11246 1.15507 2.16257 1.17407 2.10019 1.15507L2.182 1.19707C2.19012 1.20164 2.19798 1.20665 2.20553 1.21207H2.21269L2.31496 1.27507L2.85189 1.61007L4.94644 2.92007C5.93167 3.53941 6.91553 4.15641 7.89803 4.77108C8.94053 5.42241 9.98405 6.07474 11.0286 6.72808L13.7235 8.41208C14.258 8.74541 14.7933 9.07875 15.3292 9.41208C15.3824 9.44508 15.4314 9.47808 15.4846 9.51208L15.5204 9.53308L15.5736 9.56808C15.5184 9.52608 15.5736 9.56808 15.5828 9.58008C15.592 9.59208 15.6309 9.62908 15.6544 9.65308C15.6779 9.67708 15.683 9.70508 15.6544 9.65308C15.6636 9.66908 15.6759 9.68308 15.6851 9.70008C15.6943 9.71708 15.7117 9.74908 15.726 9.77508C15.7403 9.80108 15.7424 9.83408 15.726 9.76808C15.7403 9.81308 15.7546 9.85508 15.7669 9.90208C15.7711 9.91987 15.7742 9.93791 15.7761 9.95608C15.7618 9.86708 15.7761 9.95608 15.7761 9.97208C15.7761 9.98808 15.7638 10.1361 15.7761 10.0421C15.7696 10.0875 15.7593 10.1323 15.7454 10.1761C15.7404 10.1939 15.7339 10.2113 15.726 10.2281C15.7331 10.2141 15.7495 10.1551 15.726 10.2281C15.7155 10.2492 15.7035 10.2696 15.6902 10.2891C15.683 10.2981 15.6278 10.3731 15.6779 10.3101C15.6457 10.3468 15.6115 10.3818 15.5756 10.4151C15.5225 10.4571 15.5664 10.4241 15.5756 10.4151C15.5562 10.4291 15.545 10.4361 15.5225 10.4501C15.5128 10.4572 15.5025 10.4636 15.4918 10.4691L14.2645 11.2331L11.7936 12.7851C10.7606 13.4298 9.72837 14.0751 8.69678 14.7211L5.65212 16.6261C4.85848 17.1228 4.06519 17.6188 3.27223 18.1141C2.91735 18.3371 2.56553 18.5621 2.20757 18.7801C2.16871 18.8031 2.13087 18.8251 2.08996 18.8461C2.10632 18.8391 2.1503 18.8161 2.08996 18.8461L2.01837 18.8671C1.99485 18.8741 1.9703 18.8761 1.94678 18.8831C2.01121 18.8641 1.98257 18.8831 1.95598 18.8831C1.90897 18.8854 1.86186 18.8854 1.81485 18.8831C1.74734 18.8831 1.81485 18.8831 1.82712 18.8831C1.80053 18.8831 1.77189 18.8741 1.7453 18.8671C1.71871 18.8601 1.61746 18.8221 1.65939 18.8391C1.70132 18.8561 1.597 18.8061 1.57757 18.7941C1.55814 18.7821 1.53871 18.7661 1.51519 18.7571C1.46916 18.7361 1.57041 18.8111 1.51519 18.7571C1.48144 18.7241 1.44769 18.6941 1.41291 18.6571C1.46303 18.7111 1.40371 18.6411 1.38632 18.6171C1.36894 18.5931 1.35973 18.5681 1.34541 18.5441C1.33109 18.5201 1.33109 18.4881 1.34541 18.5511C1.3403 18.5011 1.32291 18.4571 1.31064 18.4121C1.31064 18.3491 1.31064 18.3931 1.31064 18.4121C1.3144 18.3842 1.3144 18.356 1.31064 18.3281C1.30958 18.2351 1.27131 18.1461 1.20402 18.0803C1.13674 18.0145 1.04579 17.9771 0.95064 17.9761C0.856105 17.9789 0.76633 18.0173 0.700027 18.0832C0.633723 18.1492 0.596004 18.2376 0.594731 18.3301C0.594929 18.5553 0.656751 18.7763 0.773783 18.9703C0.890815 19.1642 1.05879 19.324 1.26029 19.4331C1.46179 19.5422 1.68946 19.5965 1.9197 19.5906C2.14993 19.5846 2.37433 19.5185 2.56962 19.3991C2.6586 19.3451 2.74655 19.2891 2.83348 19.2331L4.58337 18.1401L7.39485 16.3821C8.45644 15.7154 9.51905 15.0504 10.5827 14.3871L13.4883 12.5711C14.1401 12.1631 14.7929 11.7544 15.4468 11.3451L15.8559 11.0901C15.9881 11.0097 16.1056 10.9083 16.2036 10.7901C16.3567 10.6026 16.4527 10.3767 16.4808 10.1383C16.5088 9.89996 16.4677 9.65869 16.3621 9.44208C16.2204 9.18888 16.0074 8.98067 15.7485 8.84208L15.1686 8.48208L12.9779 7.11208L9.95474 5.21908C8.89655 4.55841 7.83803 3.89674 6.77917 3.23407L4.12519 1.57507L2.67496 0.667072C2.51938 0.559112 2.34284 0.483453 2.15622 0.444756C1.9696 0.406059 1.77684 0.405145 1.58984 0.442071C1.30138 0.512245 1.04583 0.676112 0.86504 0.906837C0.684255 1.13756 0.588949 1.42147 0.594731 1.71207V18.3351C0.595794 18.4281 0.634064 18.5171 0.701348 18.5828C0.768632 18.6486 0.859583 18.686 0.954731 18.6871C1.05003 18.6836 1.14039 18.6447 1.20744 18.5784C1.2745 18.5121 1.31322 18.4233 1.31575 18.3301Z" fill="#FD695A"/>
</svg>
